<svg xmlns="http://www.w3.org/2000/svg" width="365.63" height="367.737" viewBox="0 0 365.63 367.737">
  <g id="layer1" transform="translate(-117.146 -272.362)">
    <path id="path3924" d="M328.734,272.364a10.8,10.8,0,0,0-3.655.731l-160.8,47.216c-1.338.313-1.26.673-.146,1.535L306.88,435.79c2.628,2.179,3.865,2.449,7.528,1.316l160.065-55.474c3.672-1.349,3.927-1.678.146-4.166L334.142,274.7c-2.169-1.528-3.643-2.3-5.409-2.339Zm-18.345,13.814a45.616,45.616,0,0,1,10.086,1.1c14.016,3.073,23.956,11.638,22.146,19.076s-14.635,10.967-28.651,7.894-23.956-11.565-22.146-19C293.181,289.662,300.783,286.225,310.388,286.177Zm-90.63,27.555a46.236,46.236,0,0,1,10.159,1.1c14.016,3.073,23.883,11.565,22.073,19s-14.635,11.04-28.651,7.967-23.883-11.638-22.073-19.076C202.624,317.143,210.152,313.779,219.758,313.732Zm137.334,7.016a46.481,46.481,0,0,1,10.159,1.17c14.016,3.073,23.883,11.565,22.073,19s-14.635,10.967-28.651,7.894-23.883-11.565-22.073-19c1.358-5.578,8.886-9.016,18.492-9.063ZM154.2,329.592c-.294.075-.388.533-.585,1.462L117.361,512.387c-.422,1.886-.348,2.354,1.389,3.874l137.7,118.7c3.2,3.061,3.876,3.022,4.312-.731l40.126-183.892a4.043,4.043,0,0,0-1.462-5.043L155.659,330.469c-.74-.624-1.168-.951-1.462-.877Zm111.826,20.684a46.233,46.233,0,0,1,10.159,1.1c14.016,3.073,23.883,11.565,22.073,19s-14.635,10.967-28.651,7.894-23.883-11.565-22.073-19c1.358-5.579,8.886-8.943,18.491-8.99Zm138.8,6.066a46.245,46.245,0,0,1,10.159,1.1c14.016,3.073,23.883,11.565,22.073,19s-14.635,11.04-28.651,7.967-23.883-11.638-22.073-19.076c1.358-5.578,8.886-8.942,18.492-8.99Zm-241.705,6.651a11.35,11.35,0,0,1,1.681,0c6.6.349,13.738,6.531,17.907,16.445,5.558,13.219,3.705,28.055-4.093,33.109S159.975,411,154.417,397.784s-3.705-28.055,4.093-33.109a10.236,10.236,0,0,1,4.6-1.681Zm150.636,23.827a46.237,46.237,0,0,1,10.159,1.1c14.016,3.073,23.883,11.565,22.073,19s-14.635,10.967-28.651,7.894-23.883-11.565-22.073-19c1.358-5.579,8.886-8.942,18.491-8.99Zm168.178,5.043a7.782,7.782,0,0,0-1.243.365L316.309,449.239c-3.348,1.378-3.248,1.941-3.8,4.458L272.455,637c-.136,2.7-1.13,3.927,2.046,2.485l161.965-60.518c3.143-1.5,3.745-1.768,4.093-4.824L482.586,393.4c.348-1.273.264-1.727-.658-1.535Zm-26.677,29.747c4.628.075,8.26,2.326,9.867,6.651,3.213,8.65-2.975,22.494-13.887,30.916s-22.368,8.211-25.581-.438,2.974-22.494,13.887-30.917c5.456-4.211,11.086-6.287,15.714-6.213Zm-199.24,15.86c6.679.171,13.965,6.449,18.2,16.518,5.558,13.219,3.778,28.055-4.02,33.109S251.555,485.481,246,472.262s-3.705-27.982,4.093-33.036a10.62,10.62,0,0,1,5.92-1.754Zm-58.69,21.2c6.679.171,13.965,6.449,18.2,16.518,5.558,13.219,3.778,28.055-4.02,33.109s-18.634-1.618-24.192-14.837-3.705-27.982,4.093-33.036a10.62,10.62,0,0,1,5.92-1.754Zm-57.813,20.976a11.639,11.639,0,0,1,1.681,0c6.6.349,13.665,6.6,17.834,16.518,5.558,13.219,3.778,27.982-4.02,33.036s-18.634-1.545-24.192-14.764-3.705-28.055,4.093-33.109a10.237,10.237,0,0,1,4.6-1.681Zm254.057,17.541c4.529.147,8.139,2.394,9.721,6.651,3.213,8.65-3.048,22.494-13.96,30.917s-22.368,8.212-25.581-.438,3.048-22.494,13.96-30.916c4.774-3.685,9.641-5.738,13.887-6.139a15.3,15.3,0,0,1,1.973-.073ZM229.333,555.876a11.645,11.645,0,0,1,1.681,0c6.6.349,13.738,6.531,17.907,16.445,5.558,13.219,3.705,28.055-4.093,33.109s-18.561-1.545-24.119-14.764-3.778-28.055,4.02-33.109A10.238,10.238,0,0,1,229.333,555.876Zm97.281,19c4.628.075,8.26,2.253,9.867,6.578,3.213,8.65-2.974,22.494-13.887,30.917s-22.368,8.284-25.581-.365,2.974-22.494,13.887-30.917C316.356,576.88,321.986,574.8,326.614,574.879Z" fill="#fff"/>
  </g>
</svg>
